<?xml version="1.0" ?><!DOCTYPE svg  PUBLIC '-//W3C//DTD SVG 1.1//EN'  'http://www.w3.org/Graphics/SVG/1.1/DTD/svg11.dtd'><svg height="100%" style="fill-rule:evenodd;clip-rule:evenodd;stroke-linejoin:round;stroke-miterlimit:2;" version="1.1" viewBox="0 0 24 24" width="100%" xml:space="preserve" xmlns="http://www.w3.org/2000/svg" xmlns:serif="http://www.serif.com/" xmlns:xlink="http://www.w3.org/1999/xlink"><path d="M23,7c-0,-3.311 -2.689,-6 -6,-6c0,0 -10,0 -10,0c-3.311,0 -6,2.689 -6,6c0,-0 0,10 0,10c0,3.311 2.689,6 6,6l10,0c3.311,0 6,-2.689 6,-6c-0,0 -0,-10 -0,-10Zm-2,0l0,10c0,2.208 -1.792,4 -4,4c0,0 -10,0 -10,0c-2.208,0 -4,-1.792 -4,-4l0,-10c0,-2.208 1.792,-4 4,-4l10,0c2.208,0 4,1.792 4,4Z"/><path d="M9.555,6.726c-2.377,0.967 -4.055,3.301 -4.055,6.024c0,0.599 0.081,1.18 0.234,1.732c-0.453,0.452 -0.734,1.078 -0.734,1.768c0,1.38 1.12,2.5 2.5,2.5c0.468,0 0.906,-0.129 1.281,-0.353c0.949,0.543 2.048,0.853 3.219,0.853c1.171,-0 2.27,-0.31 3.219,-0.853c0.375,0.224 0.813,0.353 1.281,0.353c1.38,0 2.5,-1.12 2.5,-2.5c0,-0.69 -0.281,-1.316 -0.734,-1.768c0.153,-0.552 0.234,-1.133 0.234,-1.732c-0,-2.723 -1.678,-5.057 -4.055,-6.024c-0.241,-1.129 -1.245,-1.976 -2.445,-1.976c-1.2,0 -2.204,0.847 -2.445,1.976Zm0.428,2.001c-1.472,0.74 -2.483,2.264 -2.483,4.023c0,0.344 0.039,0.68 0.112,1.002c1.328,0.059 2.388,1.156 2.388,2.498c0,0.173 -0.018,0.342 -0.051,0.506c0.615,0.316 1.312,0.494 2.051,0.494c0.739,-0 1.436,-0.178 2.051,-0.494c-0.033,-0.164 -0.051,-0.333 -0.051,-0.506c0,-1.342 1.06,-2.439 2.388,-2.498c0.073,-0.322 0.112,-0.658 0.112,-1.002c-0,-1.759 -1.011,-3.283 -2.483,-4.023c-0.455,0.62 -1.19,1.023 -2.017,1.023c-0.827,0 -1.562,-0.403 -2.017,-1.023Z"/></svg>